<svg xmlns="http://www.w3.org/2000/svg" version="1.1" xmlns:xlink="http://www.w3.org/1999/xlink" xmlns:svgjs="http://svgjs.dev/svgjs" width="1000" height="1000"><svg xmlns="http://www.w3.org/2000/svg" viewBox="0 0 1000 1000">
  <!-- Black background -->
  <rect x="0" y="0" width="1000" height="1000" fill="black"></rect>
  
  <!-- Design group with white elements -->
  <g transform="translate(100, 50) scale(10)">
    <path d="M 35 85
             L 35 35
             L 45 35
             L 45 55
             L 65 55
             L 65 15
             L 15 15
             L 15 45" fill="none" stroke="white" stroke-width="4" stroke-linejoin="miter"></path>
    <path d="M 15 65
             L 75 65
             L 75 5
             L 5 5
             L 5 55
             L 25 55
             L 25 25
             L 55 25
             L 55 45" fill="none" stroke="white" stroke-width="4" stroke-linejoin="miter"></path>
    <path d="M 25 85
             L 25 75
             L 15 75" fill="none" stroke="white" stroke-width="4" stroke-linejoin="miter"></path>
    <path d="M 45 85
             L 45 75
             L 55 75" fill="none" stroke="white" stroke-width="4" stroke-linejoin="miter"></path>
    
    <!-- Bottom dots in white -->
    <circle cx="15" cy="85" r="4" fill="white" stroke="none"></circle>
    <circle cx="55" cy="85" r="4" fill="white" stroke="none"></circle>
  </g>
</svg><style>@media (prefers-color-scheme: light) { :root { filter: none; } }
@media (prefers-color-scheme: dark) { :root { filter: none; } }
</style></svg>